# xmcd CD database file
#
# Track frame offsets:
#	150
#	15247
#	25926
#	39285
#	66185
#	79438
#	94752
#	105108
#	116434
#	140714
#	157862
#	172772
#	184226
#	196448
#	212894
#	225862
#	246983
#	259580
#
# Disc length: 3636 seconds
#
# Revision: 3
# Processed by: cddbd v1.5.2PL0 Copyright (c) Steve Scherf et al.
# Submitted via: CDex 1.70beta2
#
DISCID=de0e3212
DTITLE=Various Artist - The Best Of Blues
DYEAR=2003
DGENRE=Blues
TTITLE0=B.B. King - Mr. Pawnbroker
TTITLE1=Canned Heat - Dimples
TTITLE2=John Lee Hooker - I Want To Hug You
TTITLE3=Muddy Waters - Caldonia
TTITLE4=Elmore James - Dust My Broom
TTITLE5=Pinetop Perkins - Yonders Wall
TTITLE6=Canned Heat - Rollin' And Tumblin'
TTITLE7=Canned Heat - Spoonful
TTITLE8=B.B. KING - You Done Your Good Thing Now
TTITLE9=Ike and Tina Turner - I Smell Trouble
TTITLE10=Johnny Winter - Let The Music Play
TTITLE11=B.B. King - Catfish Blues
TTITLE12=Ray Charles - Honey Honey
TTITLE13=Muddy Waters - Corinna, Corrina
TTITLE14=Jimmy Reed - Shame, Shame, Shame
TTITLE15=Electric Flag and Mike Bloomfield - I Was Robbed Last Night
TTITLE16=Lightnin' Hopkins - My Baby's Gone
TTITLE17=John Lee Hooker - I'm So Excited
EXTD=Label: Blue Moon (Broken Silence) Firma: Fenn Music Service GmbH Für freedb bereitgestelt von: KELLER'S Musik-Katalog 2005 2005 YEAR: 2003
EXTT0=
EXTT1=
EXTT2=
EXTT3=
EXTT4=
EXTT5=
EXTT6=
EXTT7=
EXTT8=
EXTT9=
EXTT10=
EXTT11=
EXTT12=
EXTT13=
EXTT14=
EXTT15=
EXTT16=
EXTT17=
PLAYORDER=
